<?xml version="1.0" standalone="no"?><!-- Generator: Gravit.io --><svg xmlns="http://www.w3.org/2000/svg" xmlns:xlink="http://www.w3.org/1999/xlink" style="isolation:isolate" viewBox="0 0 32 32" width="32" height="32"><defs><clipPath id="_clipPath_pMReBMHl5oZJkM1zOy6O4QaOzoEYKHWh"><rect width="32" height="32"/></clipPath></defs><g clip-path="url(#_clipPath_pMReBMHl5oZJkM1zOy6O4QaOzoEYKHWh)"><g><g><circle vector-effect="non-scaling-stroke" cx="16" cy="16" r="16" fill="rgb(118,194,175)"/></g><g style="opacity:0.2;"><g opacity="0.2"><path d=" M 23.92 15 L 20 15 L 20 9 C 20 7.896 19.105 7 18 7 L 14 7 C 12.896 7 12 7.896 12 9 L 12 15 L 8.081 15 C 6.72 15 6.339 15.933 7.236 17.072 L 14.371 26.145 C 15.267 27.285 16.734 27.285 17.63 26.145 L 24.765 17.072 C 25.661 15.933 25.281 15 23.92 15 Z " fill="rgb(35,31,32)"/></g></g><g><path d=" M 12 8 C 12 6.896 12.896 6 14 6 L 18 6 C 19.105 6 20 6.896 20 8 L 20 20 C 20 21.105 19.105 22 18 22 L 14 22 C 12.896 22 12 21.105 12 20 L 12 8 Z " fill="rgb(255,255,255)"/></g><g><path d=" M 23.92 14 C 25.281 14 25.661 14.933 24.765 16.072 L 17.63 25.145 C 16.733 26.285 15.267 26.285 14.37 25.145 L 7.236 16.073 C 6.34 14.933 6.72 14 8.081 14 L 23.92 14 Z " fill="rgb(255,255,255)"/></g></g></g></svg>