<?xml version="1.0" standalone="no"?><!-- Generator: Gravit.io --><svg xmlns="http://www.w3.org/2000/svg" xmlns:xlink="http://www.w3.org/1999/xlink" style="isolation:isolate" viewBox="0 0 32 32" width="32" height="32"><defs><clipPath id="_clipPath_yNNHTchEluojCvoe6mmUU5rH7IzVgxZr"><rect width="32" height="32"/></clipPath></defs><g clip-path="url(#_clipPath_yNNHTchEluojCvoe6mmUU5rH7IzVgxZr)"><g><g><path d=" M 0 16 C 0 24.831 7.169 32 16 32 C 24.831 32 32 24.831 32 16 C 32 7.169 24.831 0 16 0 C 7.169 0 0 7.169 0 16 Z " fill="rgb(118,194,175)"/></g><g style="opacity:0.2;"><g opacity="0.2"><path d=" M 23.919 17 L 20 17 L 20 23 C 20 24.105 19.104 25 18 25 L 14 25 C 12.895 25 12 24.104 12 23 L 12 17 L 8.08 17 C 6.719 17 6.339 16.067 7.235 14.927 L 14.371 5.855 C 15.267 4.715 16.734 4.715 17.63 5.855 L 24.764 14.928 C 25.66 16.068 25.28 17 23.919 17 Z " fill="rgb(35,31,32)"/></g></g><g><path d=" M 12 24 C 12 25.104 12.895 26 14 26 L 18 26 C 19.104 26 20 25.105 20 24 L 20 12 C 20 10.895 19.105 10 18 10 L 14 10 C 12.895 10 12 10.895 12 12 L 12 24 Z " fill="rgb(255,255,255)"/></g><g><path d=" M 23.919 18 C 25.28 18 25.661 17.068 24.764 15.928 L 17.63 6.855 C 16.733 5.715 15.267 5.715 14.37 6.855 L 7.235 15.927 C 6.339 17.068 6.719 18 8.08 18 L 23.919 18 Z " fill="rgb(255,255,255)"/></g></g></g></svg>